<svg width="65" height="65" viewBox="0 0 65 65" fill="none" xmlns="http://www.w3.org/2000/svg">
<circle cx="32.5" cy="32.5" r="32.5" fill="#A6E0DC"/>
<g filter="url(#filter0_d_3076_704)">
<rect x="14.9531" y="15.6016" width="34.45" height="34.45" rx="9" fill="white"/>
</g>
<mask id="path-3-outside-1_3076_704" maskUnits="userSpaceOnUse" x="14.9531" y="15.6016" width="35" height="16" fill="black">
<rect fill="white" x="14.9531" y="15.6016" width="35" height="16"/>
<path d="M14.9531 24.6016C14.9531 19.631 18.9826 15.6016 23.9531 15.6016H40.4031C45.3737 15.6016 49.4031 19.631 49.4031 24.6016V27.9516H14.9531V24.6016Z"/>
</mask>
<path d="M14.9531 24.6016C14.9531 19.631 18.9826 15.6016 23.9531 15.6016H40.4031C45.3737 15.6016 49.4031 19.631 49.4031 24.6016V27.9516H14.9531V24.6016Z" fill="#FC5757"/>
<path d="M14.9531 15.6016H49.4031H14.9531ZM49.4031 30.9516H14.9531V24.9516H49.4031V30.9516ZM14.9531 27.9516V15.6016V27.9516ZM49.4031 15.6016V27.9516V15.6016Z" fill="black" fill-opacity="0.34" mask="url(#path-3-outside-1_3076_704)"/>
<g filter="url(#filter1_d_3076_704)">
<rect x="22.1016" y="11.6992" width="3.9" height="8.45" rx="1.95" fill="#ECECE7"/>
</g>
<g filter="url(#filter2_d_3076_704)">
<rect x="38.3516" y="11.6992" width="3.9" height="8.45" rx="1.95" fill="#ECECE7"/>
</g>
<defs>
<filter id="filter0_d_3076_704" x="14.9531" y="15.6016" width="34.4492" height="38.45" filterUnits="userSpaceOnUse" color-interpolation-filters="sRGB">
<feFlood flood-opacity="0" result="BackgroundImageFix"/>
<feColorMatrix in="SourceAlpha" type="matrix" values="0 0 0 0 0 0 0 0 0 0 0 0 0 0 0 0 0 0 127 0" result="hardAlpha"/>
<feOffset dy="4"/>
<feComposite in2="hardAlpha" operator="out"/>
<feColorMatrix type="matrix" values="0 0 0 0 0 0 0 0 0 0 0 0 0 0 0 0 0 0 0.25 0"/>
<feBlend mode="normal" in2="BackgroundImageFix" result="effect1_dropShadow_3076_704"/>
<feBlend mode="normal" in="SourceGraphic" in2="effect1_dropShadow_3076_704" result="shape"/>
</filter>
<filter id="filter1_d_3076_704" x="22.1016" y="11.6992" width="3.89844" height="9.44995" filterUnits="userSpaceOnUse" color-interpolation-filters="sRGB">
<feFlood flood-opacity="0" result="BackgroundImageFix"/>
<feColorMatrix in="SourceAlpha" type="matrix" values="0 0 0 0 0 0 0 0 0 0 0 0 0 0 0 0 0 0 127 0" result="hardAlpha"/>
<feOffset dy="1"/>
<feComposite in2="hardAlpha" operator="out"/>
<feColorMatrix type="matrix" values="0 0 0 0 0 0 0 0 0 0 0 0 0 0 0 0 0 0 0.25 0"/>
<feBlend mode="normal" in2="BackgroundImageFix" result="effect1_dropShadow_3076_704"/>
<feBlend mode="normal" in="SourceGraphic" in2="effect1_dropShadow_3076_704" result="shape"/>
</filter>
<filter id="filter2_d_3076_704" x="38.3516" y="11.6992" width="3.89844" height="9.44995" filterUnits="userSpaceOnUse" color-interpolation-filters="sRGB">
<feFlood flood-opacity="0" result="BackgroundImageFix"/>
<feColorMatrix in="SourceAlpha" type="matrix" values="0 0 0 0 0 0 0 0 0 0 0 0 0 0 0 0 0 0 127 0" result="hardAlpha"/>
<feOffset dy="1"/>
<feComposite in2="hardAlpha" operator="out"/>
<feColorMatrix type="matrix" values="0 0 0 0 0 0 0 0 0 0 0 0 0 0 0 0 0 0 0.25 0"/>
<feBlend mode="normal" in2="BackgroundImageFix" result="effect1_dropShadow_3076_704"/>
<feBlend mode="normal" in="SourceGraphic" in2="effect1_dropShadow_3076_704" result="shape"/>
</filter>
</defs>
</svg>
