<svg width="186" height="33" viewBox="0 0 186 33" fill="none" xmlns="http://www.w3.org/2000/svg">
<path d="M2.00195 0.71875H6.01953L16.2676 26.2207L26.4941 0.71875H30.5332L17.8145 32H14.6777L2.00195 0.71875ZM0.691406 0.71875H4.23633L4.81641 19.7969V32H0.691406V0.71875ZM28.2773 0.71875H31.8223V32H27.6973V19.7969L28.2773 0.71875ZM134.969 16.4238V27.875C134.582 28.4479 133.966 29.0924 133.121 29.8086C132.276 30.5104 131.109 31.1263 129.619 31.6562C128.144 32.1719 126.239 32.4297 123.904 32.4297C121.999 32.4297 120.245 32.1003 118.641 31.4414C117.051 30.7682 115.669 29.7943 114.494 28.5195C113.334 27.2305 112.432 25.6693 111.787 23.8359C111.157 21.9883 110.842 19.8971 110.842 17.5625V15.1348C110.842 12.8001 111.114 10.7161 111.658 8.88281C112.217 7.04948 113.033 5.49544 114.107 4.2207C115.182 2.93164 116.499 1.95768 118.061 1.29883C119.622 0.625651 121.412 0.289062 123.432 0.289062C125.824 0.289062 127.822 0.704427 129.426 1.53516C131.044 2.35156 132.305 3.48307 133.207 4.92969C134.124 6.3763 134.711 8.02344 134.969 9.87109H130.822C130.636 8.73958 130.264 7.70833 129.705 6.77734C129.161 5.84635 128.38 5.10156 127.363 4.54297C126.346 3.97005 125.036 3.68359 123.432 3.68359C121.985 3.68359 120.732 3.94857 119.672 4.47852C118.612 5.00846 117.738 5.76758 117.051 6.75586C116.363 7.74414 115.848 8.9401 115.504 10.3438C115.174 11.7474 115.01 13.3301 115.01 15.0918V17.5625C115.01 19.3672 115.217 20.9785 115.633 22.3965C116.062 23.8145 116.671 25.0247 117.459 26.0273C118.247 27.0156 119.185 27.7676 120.273 28.2832C121.376 28.7988 122.594 29.0566 123.926 29.0566C125.401 29.0566 126.597 28.9349 127.514 28.6914C128.43 28.4336 129.146 28.1328 129.662 27.7891C130.178 27.431 130.572 27.0944 130.844 26.7793V19.7754H123.604V16.4238H134.969Z" fill="#0500FF"/>
<path d="M63.1895 15.3711V17.3477C63.1895 19.6966 62.8958 21.8021 62.3086 23.6641C61.7214 25.526 60.8763 27.1087 59.7734 28.4121C58.6706 29.7155 57.3457 30.7109 55.7988 31.3984C54.2663 32.0859 52.5475 32.4297 50.6426 32.4297C48.7949 32.4297 47.0977 32.0859 45.5508 31.3984C44.0182 30.7109 42.6862 29.7155 41.5547 28.4121C40.4375 27.1087 39.571 25.526 38.9551 23.6641C38.3392 21.8021 38.0312 19.6966 38.0312 17.3477V15.3711C38.0312 13.0221 38.332 10.9238 38.9336 9.07617C39.5495 7.21419 40.416 5.63151 41.5332 4.32812C42.6504 3.01042 43.9753 2.00781 45.5078 1.32031C47.0547 0.632812 48.752 0.289062 50.5996 0.289062C52.5046 0.289062 54.2233 0.632812 55.7559 1.32031C57.3027 2.00781 58.6276 3.01042 59.7305 4.32812C60.8477 5.63151 61.6999 7.21419 62.2871 9.07617C62.8887 10.9238 63.1895 13.0221 63.1895 15.3711ZM59.0859 17.3477V15.3281C59.0859 13.4661 58.8926 11.819 58.5059 10.3867C58.1335 8.95443 57.582 7.7513 56.8516 6.77734C56.1211 5.80339 55.2259 5.06576 54.166 4.56445C53.1204 4.06315 51.9316 3.8125 50.5996 3.8125C49.3105 3.8125 48.1432 4.06315 47.0977 4.56445C46.0664 5.06576 45.1784 5.80339 44.4336 6.77734C43.7031 7.7513 43.1374 8.95443 42.7363 10.3867C42.3353 11.819 42.1348 13.4661 42.1348 15.3281V17.3477C42.1348 19.224 42.3353 20.8854 42.7363 22.332C43.1374 23.7643 43.7103 24.9746 44.4551 25.9629C45.2142 26.9368 46.1094 27.6745 47.1406 28.1758C48.1862 28.6771 49.3535 28.9277 50.6426 28.9277C51.9889 28.9277 53.1849 28.6771 54.2305 28.1758C55.276 27.6745 56.1569 26.9368 56.873 25.9629C57.6035 24.9746 58.1549 23.7643 58.5273 22.332C58.8997 20.8854 59.0859 19.224 59.0859 17.3477ZM185.436 28.627V32H168.871V28.627H185.436ZM169.709 0.71875V32H165.562V0.71875H169.709ZM183.244 14.168V17.541H168.871V14.168H183.244ZM185.221 0.71875V4.11328H168.871V0.71875H185.221Z" fill="#FF0000"/>
<path d="M93.4824 15.3711V17.3477C93.4824 19.6966 93.1888 21.8021 92.6016 23.6641C92.0143 25.526 91.1693 27.1087 90.0664 28.4121C88.9635 29.7155 87.6387 30.7109 86.0918 31.3984C84.5592 32.0859 82.8405 32.4297 80.9355 32.4297C79.0879 32.4297 77.3906 32.0859 75.8438 31.3984C74.3112 30.7109 72.9792 29.7155 71.8477 28.4121C70.7305 27.1087 69.8639 25.526 69.248 23.6641C68.6322 21.8021 68.3242 19.6966 68.3242 17.3477V15.3711C68.3242 13.0221 68.625 10.9238 69.2266 9.07617C69.8424 7.21419 70.709 5.63151 71.8262 4.32812C72.9434 3.01042 74.2682 2.00781 75.8008 1.32031C77.3477 0.632812 79.0449 0.289062 80.8926 0.289062C82.7975 0.289062 84.5163 0.632812 86.0488 1.32031C87.5957 2.00781 88.9206 3.01042 90.0234 4.32812C91.1406 5.63151 91.9928 7.21419 92.5801 9.07617C93.1816 10.9238 93.4824 13.0221 93.4824 15.3711ZM89.3789 17.3477V15.3281C89.3789 13.4661 89.1855 11.819 88.7988 10.3867C88.4264 8.95443 87.875 7.7513 87.1445 6.77734C86.4141 5.80339 85.5189 5.06576 84.459 4.56445C83.4134 4.06315 82.2246 3.8125 80.8926 3.8125C79.6035 3.8125 78.4362 4.06315 77.3906 4.56445C76.3594 5.06576 75.4714 5.80339 74.7266 6.77734C73.9961 7.7513 73.4303 8.95443 73.0293 10.3867C72.6283 11.819 72.4277 13.4661 72.4277 15.3281V17.3477C72.4277 19.224 72.6283 20.8854 73.0293 22.332C73.4303 23.7643 74.0033 24.9746 74.748 25.9629C75.5072 26.9368 76.4023 27.6745 77.4336 28.1758C78.4792 28.6771 79.6465 28.9277 80.9355 28.9277C82.2819 28.9277 83.4779 28.6771 84.5234 28.1758C85.569 27.6745 86.4499 26.9368 87.166 25.9629C87.8965 24.9746 88.4479 23.7643 88.8203 22.332C89.1927 20.8854 89.3789 19.224 89.3789 17.3477Z" fill="#F4DE16"/>
<path d="M107.361 17.0684V20.334H96.877V17.0684H107.361Z" fill="black"/>
<path d="M160.814 28.627V32H145.174V28.627H160.814ZM145.99 0.71875V32H141.844V0.71875H145.99Z" fill="#0DA71C"/>
</svg>
