<svg width="41" height="44" viewBox="0 0 41 44" fill="none" xmlns="http://www.w3.org/2000/svg">
<rect x="0.84375" y="0.515625" width="40" height="42.9268" transform="rotate(0.5 0.84375 0.515625)" fill="#FC5757"/>
<path d="M17.2507 15.57L16.8831 24.4528L14.7739 24.4344L14.5526 15.5464L17.2507 15.57ZM14.3807 27.1821C14.384 26.8071 14.5156 26.4977 14.7756 26.2539C15.0414 26.0042 15.3882 25.8813 15.8159 25.885C16.2495 25.8888 16.5941 26.0178 16.8497 26.272C17.1053 26.5203 17.2315 26.832 17.2283 27.2069C17.2251 27.5702 17.0935 27.8767 16.8335 28.1264C16.5735 28.3761 16.2267 28.499 15.7931 28.4952C15.3654 28.4915 15.0208 28.3625 14.7594 28.1083C14.5038 27.8541 14.3775 27.5454 14.3807 27.1821ZM22.1197 15.6125L21.7521 24.4953L19.6428 24.4769L19.4215 15.5889L22.1197 15.6125ZM19.2497 27.2246C19.2529 26.8496 19.3846 26.5402 19.6445 26.2963C19.9104 26.0467 20.2572 25.9237 20.6849 25.9275C21.1185 25.9313 21.463 26.0603 21.7186 26.3144C21.9743 26.5628 22.1005 26.8744 22.0972 27.2494C22.0941 27.6127 21.9625 27.9192 21.7025 28.1689C21.4425 28.4186 21.0957 28.5415 20.6621 28.5377C20.2344 28.534 19.8898 28.405 19.6283 28.1508C19.3727 27.8966 19.2465 27.5878 19.2497 27.2246ZM26.9886 15.655L26.6211 24.5378L24.5118 24.5194L24.2905 15.6314L26.9886 15.655ZM24.1186 27.2671C24.1219 26.8921 24.2535 26.5827 24.5135 26.3388C24.7793 26.0892 25.1261 25.9662 25.5538 25.97C25.9874 25.9738 26.332 26.1027 26.5876 26.3569C26.8433 26.6053 26.9694 26.9169 26.9662 27.2919C26.963 27.6552 26.8314 27.9617 26.5714 28.2114C26.3114 28.4611 25.9646 28.584 25.5311 28.5802C25.1033 28.5765 24.7587 28.4475 24.4973 28.1933C24.2417 27.9391 24.1155 27.6303 24.1186 27.2671Z" fill="white"/>
</svg>
