<svg width="220" height="27" viewBox="0 0 220 27" fill="none" xmlns="http://www.w3.org/2000/svg">
<path d="M2.05275 2.636L16.6328 2.42C17.3288 2.636 17.6768 2.984 17.6768 3.464C17.6768 4.664 17.1848 5.264 16.2008 5.264C14.4008 5.264 12.4928 5.312 10.4768 5.408C10.3568 7.472 10.2968 9.032 10.2968 10.088C10.2968 11.12 10.2968 11.78 10.2968 12.068L10.4408 24.704C10.4408 25.448 10.2488 25.88 9.86475 26C9.57675 26.096 9.21675 26.144 8.78475 26.144C8.08875 26.144 7.70475 25.748 7.63275 24.956C7.48875 23.108 7.41675 19.664 7.41675 14.624C7.41675 9.56 7.48875 6.512 7.63275 5.48C7.12875 5.504 6.38475 5.516 5.40075 5.516C4.41675 5.516 3.19275 5.504 1.72875 5.48C1.34475 5.48 1.04475 5.36 0.82875 5.12C0.61275 4.88 0.50475 4.592 0.50475 4.256C0.50475 3.896 0.64875 3.548 0.93675 3.212C1.24875 2.876 1.62075 2.684 2.05275 2.636ZM25.0486 9.224C26.7766 9.224 28.1926 10.052 29.2966 11.708C30.4246 13.364 30.9886 15.356 30.9886 17.684C30.9886 19.988 30.4126 21.956 29.2606 23.588C28.1326 25.22 26.6206 26.036 24.7246 26.036C22.8526 26.036 21.3406 25.208 20.1886 23.552C19.0366 21.872 18.4606 20.012 18.4606 17.972C18.4606 15.356 18.9886 13.268 20.0446 11.708C21.1726 10.052 22.8406 9.224 25.0486 9.224ZM24.6166 12.176C23.6086 12.176 22.7806 12.704 22.1326 13.76C21.4846 14.816 21.1606 15.932 21.1606 17.108C21.1606 18.932 21.5206 20.324 22.2406 21.284C22.9606 22.244 23.7766 22.724 24.6886 22.724C26.3206 22.724 27.3646 22.016 27.8206 20.6C28.0126 19.928 28.1086 19.088 28.1086 18.08C28.1086 14.144 26.9446 12.176 24.6166 12.176ZM47.253 25.928L42.609 25.82C42.345 24.812 42.189 20.276 42.141 12.212V9.656C42.141 7.616 42.333 6.068 42.717 5.012C43.101 3.932 43.905 3.068 45.129 2.42C45.753 2.108 46.617 1.952 47.721 1.952C48.849 1.952 49.713 2.024 50.313 2.168C51.921 2.504 53.013 3.128 53.589 4.04C54.189 4.952 54.489 6.176 54.489 7.712C54.489 9.848 53.925 11.42 52.797 12.428C53.373 12.5 53.949 12.788 54.525 13.292C55.101 13.796 55.569 14.312 55.929 14.84C56.553 15.8 56.865 17.108 56.865 18.764C56.865 21.356 56.073 23.204 54.489 24.308C52.929 25.388 50.517 25.928 47.253 25.928ZM45.021 8.396L45.093 12.5C45.141 12.5 45.549 12.452 46.317 12.356C47.085 12.236 47.733 12.116 48.261 11.996C50.685 11.42 51.897 10.04 51.897 7.856C51.897 6.776 51.573 5.984 50.925 5.48C50.301 4.976 49.473 4.724 48.441 4.724C47.145 4.724 46.269 4.952 45.813 5.408C45.621 5.6 45.465 5.768 45.345 5.912C45.225 6.032 45.141 6.236 45.093 6.524C45.045 6.812 45.009 7.016 44.985 7.136C44.985 7.256 44.985 7.484 44.985 7.82C45.009 8.156 45.021 8.348 45.021 8.396ZM53.121 16.064C52.881 15.8 52.509 15.56 52.005 15.344C51.501 15.128 50.769 15.02 49.809 15.02C48.873 15.02 47.265 15.176 44.985 15.488C44.985 19.232 45.045 21.764 45.165 23.084C47.973 23.084 49.941 22.904 51.069 22.544C52.197 22.16 52.953 21.704 53.337 21.176C53.745 20.624 53.949 20.048 53.949 19.448C53.949 18.824 53.937 18.392 53.913 18.152C53.913 17.888 53.841 17.54 53.697 17.108C53.577 16.652 53.385 16.304 53.121 16.064ZM64.9231 9.332C66.1951 9.332 67.4071 9.704 68.5591 10.448C69.7111 11.192 70.2871 12.116 70.2871 13.22C70.2871 14.3 69.8191 15.356 68.8831 16.388C67.9471 17.396 66.6991 18.008 65.1391 18.224C64.4671 18.32 63.4591 18.368 62.1151 18.368C62.3791 20.408 62.8951 21.752 63.6631 22.4C63.9031 22.664 64.2271 22.796 64.6351 22.796C66.1231 22.796 67.3711 22.328 68.3791 21.392C69.3871 20.432 70.1071 19.952 70.5391 19.952C70.7311 19.952 71.0191 20.132 71.4031 20.492C71.7871 20.852 71.9791 21.188 71.9791 21.5C71.9791 22.124 71.2231 23.024 69.7111 24.2C69.0391 24.752 68.2231 25.22 67.2631 25.604C66.3271 25.964 65.4511 26.144 64.6351 26.144C62.5471 26.144 61.0111 24.8 60.0271 22.112C59.4031 20.456 59.0911 18.632 59.0911 16.64C59.0911 14.648 59.5591 12.932 60.4951 11.492C61.4311 10.052 62.9071 9.332 64.9231 9.332ZM65.1031 11.816C64.1911 11.816 63.4111 12.332 62.7631 13.364C62.5231 13.724 62.2951 14.54 62.0791 15.812C65.4391 15.812 67.1191 14.984 67.1191 13.328C67.1191 12.32 66.4471 11.816 65.1031 11.816ZM96.5997 2.6C96.9357 2.216 97.3077 2.024 97.7157 2.024C98.1237 2.024 98.4717 2.228 98.7597 2.636C99.1677 4.724 99.3717 7.064 99.3717 9.656V12.392C99.3717 14.456 99.3357 15.68 99.2637 16.064C99.1917 16.424 99.1197 16.832 99.0477 17.288C98.9757 17.744 98.9037 18.092 98.8317 18.332C98.7837 18.572 98.6997 18.896 98.5797 19.304C98.3157 20.192 97.9437 20.984 97.4637 21.68C96.7437 23.024 95.7957 24.08 94.6197 24.848C93.4437 25.616 92.2437 26 91.0197 26C89.8197 26 88.5717 25.472 87.2757 24.416C86.0037 23.36 84.9597 22.04 84.1437 20.456C82.8957 18.008 82.2717 15.188 82.2717 11.996C82.2717 10.868 82.4397 8.192 82.7757 3.968C82.9437 3.584 83.1957 3.248 83.5317 2.96C83.8917 2.648 84.2517 2.492 84.6117 2.492C85.1397 2.492 85.4637 2.852 85.5837 3.572C85.2477 7.724 85.0797 10.352 85.0797 11.456C85.0797 14.096 85.5957 16.436 86.6277 18.476C87.2757 19.82 88.0677 20.948 89.0037 21.86C89.9637 22.748 90.8997 23.192 91.8117 23.192C93.3237 23.192 94.6197 22.016 95.6997 19.664C96.1557 18.848 96.4077 17.54 96.4557 15.74C96.4557 15.26 96.4797 14.924 96.5277 14.732L96.5997 9.98C96.5997 7.772 96.4317 5.756 96.0957 3.932C96.0957 3.428 96.2637 2.984 96.5997 2.6ZM103.541 24.884L103.145 10.268C103.145 9.812 103.301 9.44 103.613 9.152C103.925 8.864 104.237 8.72 104.549 8.72C105.317 8.72 105.761 9.044 105.881 9.692C105.977 10.34 106.025 11.012 106.025 11.708C107.321 10.004 108.941 9.152 110.885 9.152C113.861 9.152 115.349 12.548 115.349 19.34C115.349 19.964 115.349 20.912 115.349 22.184C115.349 23.432 115.277 24.344 115.133 24.92C114.965 25.64 114.449 26 113.585 26C113.009 26 112.721 25.616 112.721 24.848L112.757 22.832C112.757 20.048 112.661 18.152 112.469 17.144C112.301 16.112 112.133 15.296 111.965 14.696C111.557 13.4 110.897 12.752 109.985 12.752C108.785 12.752 107.945 13.184 107.465 14.048C106.937 14.984 106.625 16.088 106.529 17.36C106.361 19.592 106.277 21.956 106.277 24.452C106.277 24.932 106.097 25.316 105.737 25.604C105.377 25.892 104.945 26.036 104.441 26.036C103.841 26.036 103.541 25.652 103.541 24.884ZM118.342 2.708C118.414 1.796 118.558 1.208 118.774 0.943999C119.014 0.655999 119.386 0.512 119.89 0.512C120.922 0.512 121.438 0.931999 121.438 1.772C121.438 2.42 121.378 4.112 121.258 6.848C121.162 9.584 121.114 12.032 121.114 14.192C121.114 16.352 121.198 18.092 121.366 19.412C121.654 21.716 122.062 22.868 122.59 22.868C123.118 22.868 123.514 22.496 123.778 21.752C123.898 21.464 124.09 21.212 124.354 20.996C124.618 20.756 124.954 20.636 125.362 20.636C126.202 20.636 126.622 21.344 126.622 22.76C126.622 23.528 126.202 24.296 125.362 25.064C124.546 25.808 123.73 26.18 122.914 26.18C122.098 26.18 121.438 26.048 120.934 25.784C120.454 25.496 120.058 25.076 119.746 24.524C119.458 23.972 119.218 23.444 119.026 22.94C118.858 22.412 118.738 21.776 118.666 21.032C118.522 19.832 118.414 17.912 118.342 15.272C118.294 12.608 118.27 10.076 118.27 7.676C118.27 5.252 118.294 3.596 118.342 2.708ZM134.385 9.224C136.113 9.224 137.529 10.052 138.633 11.708C139.761 13.364 140.325 15.356 140.325 17.684C140.325 19.988 139.749 21.956 138.597 23.588C137.469 25.22 135.957 26.036 134.061 26.036C132.189 26.036 130.677 25.208 129.525 23.552C128.373 21.872 127.797 20.012 127.797 17.972C127.797 15.356 128.325 13.268 129.381 11.708C130.509 10.052 132.177 9.224 134.385 9.224ZM133.953 12.176C132.945 12.176 132.117 12.704 131.469 13.76C130.821 14.816 130.497 15.932 130.497 17.108C130.497 18.932 130.857 20.324 131.577 21.284C132.297 22.244 133.113 22.724 134.025 22.724C135.657 22.724 136.701 22.016 137.157 20.6C137.349 19.928 137.445 19.088 137.445 18.08C137.445 14.144 136.281 12.176 133.953 12.176ZM142.028 17.576C142.028 15.968 142.448 14.504 143.288 13.184C144.152 11.864 145.244 10.88 146.564 10.232C147.884 9.56 149.168 9.224 150.416 9.224C151.664 9.224 152.66 9.38 153.404 9.692C154.172 9.98 154.556 10.376 154.556 10.88C154.556 11.36 154.412 11.852 154.124 12.356C153.86 12.836 153.5 13.076 153.044 13.076C152.876 13.076 152.408 12.944 151.64 12.68C150.896 12.392 150.416 12.248 150.2 12.248C148.808 12.248 147.62 12.764 146.636 13.796C145.652 14.804 145.16 16.148 145.16 17.828C145.16 19.508 145.424 20.768 145.952 21.608C146.504 22.424 147.44 22.832 148.76 22.832C149.288 22.832 150.188 22.532 151.46 21.932C152.756 21.308 153.56 20.996 153.872 20.996C154.184 20.996 154.436 21.092 154.628 21.284C154.82 21.476 154.916 21.716 154.916 22.004C154.916 22.58 154.544 23.192 153.8 23.84C153.08 24.464 152.18 24.992 151.1 25.424C150.02 25.832 149.048 26.036 148.184 26.036C146.264 26.036 144.752 25.28 143.648 23.768C142.568 22.256 142.028 20.192 142.028 17.576ZM169.341 24.38C169.341 25.508 168.825 26.072 167.793 26.072C167.361 26.072 166.773 25.016 166.029 22.904C165.285 20.768 164.289 19.124 163.041 17.972C162.921 18.14 162.405 18.62 161.493 19.412C160.605 20.18 160.077 20.648 159.909 20.816V24.416C159.861 24.776 159.801 25.052 159.729 25.244C159.657 25.436 159.489 25.616 159.225 25.784C158.985 25.952 158.649 26.036 158.217 26.036C157.569 26.036 157.245 25.64 157.245 24.848C157.245 22.616 157.149 19.16 156.957 14.48C156.765 9.776 156.669 5.564 156.669 1.844C156.669 1.388 156.849 1.028 157.209 0.763999C157.593 0.499999 157.989 0.368 158.397 0.368C158.949 0.368 159.285 0.715999 159.405 1.412V7.784C159.405 8.552 159.417 9.128 159.441 9.512C159.465 9.896 159.489 10.472 159.513 11.24C159.561 12.824 159.645 14.612 159.765 16.604C160.461 16.076 161.349 15.248 162.429 14.12C163.533 12.968 164.361 11.984 164.913 11.168C165.777 9.8 166.569 9.116 167.289 9.116C167.481 9.116 167.673 9.164 167.865 9.26C168.369 9.548 168.621 9.884 168.621 10.268C168.621 10.652 168.453 11.156 168.117 11.78C167.253 13.268 166.257 14.624 165.129 15.848C166.209 17.048 167.289 18.764 168.369 20.996C169.017 22.436 169.341 23.564 169.341 24.38ZM176.615 9.332C177.887 9.332 179.099 9.704 180.251 10.448C181.403 11.192 181.979 12.116 181.979 13.22C181.979 14.3 181.511 15.356 180.575 16.388C179.639 17.396 178.391 18.008 176.831 18.224C176.159 18.32 175.151 18.368 173.807 18.368C174.071 20.408 174.587 21.752 175.354 22.4C175.595 22.664 175.919 22.796 176.327 22.796C177.815 22.796 179.063 22.328 180.071 21.392C181.079 20.432 181.799 19.952 182.231 19.952C182.423 19.952 182.711 20.132 183.095 20.492C183.479 20.852 183.671 21.188 183.671 21.5C183.671 22.124 182.915 23.024 181.403 24.2C180.731 24.752 179.915 25.22 178.955 25.604C178.019 25.964 177.143 26.144 176.327 26.144C174.239 26.144 172.703 24.8 171.719 22.112C171.095 20.456 170.783 18.632 170.783 16.64C170.783 14.648 171.251 12.932 172.187 11.492C173.123 10.052 174.599 9.332 176.615 9.332ZM176.795 11.816C175.883 11.816 175.103 12.332 174.455 13.364C174.215 13.724 173.987 14.54 173.771 15.812C177.131 15.812 178.811 14.984 178.811 13.328C178.811 12.32 178.139 11.816 176.795 11.816ZM194.378 9.152L194.342 2.204C194.342 0.907999 194.75 0.259999 195.566 0.259999C196.406 0.259999 196.874 0.619998 196.97 1.34C197.018 1.652 197.078 3.536 197.15 6.992C197.222 10.448 197.33 13.688 197.474 16.712C197.642 19.736 197.726 22.556 197.726 25.172C197.726 25.892 197.186 26.252 196.106 26.252C195.386 26.252 195.026 25.748 195.026 24.74C193.994 25.556 192.77 25.964 191.354 25.964C189.554 25.964 188.09 25.292 186.962 23.948C185.858 22.604 185.306 20.948 185.306 18.98C185.306 17.012 185.702 15.176 186.494 13.472C187.31 11.744 188.57 10.508 190.274 9.764C191.33 9.308 192.35 9.08 193.334 9.08C193.694 9.08 194.042 9.104 194.378 9.152ZM194.558 14.084C194.39 13.556 194.186 13.16 193.946 12.896C193.706 12.608 193.442 12.44 193.154 12.392C192.89 12.32 192.566 12.284 192.182 12.284C191.798 12.284 191.33 12.428 190.778 12.716C190.226 13.004 189.758 13.472 189.374 14.12C188.606 15.416 188.222 16.784 188.222 18.224C188.222 19.64 188.498 20.804 189.05 21.716C189.626 22.604 190.43 23.048 191.462 23.048C192.518 23.048 193.346 22.532 193.946 21.5C194.546 20.468 194.846 19.148 194.846 17.54C194.846 15.74 194.75 14.588 194.558 14.084ZM202.286 21.68C202.814 21.68 203.27 21.872 203.654 22.256C204.038 22.64 204.266 23.168 204.338 23.84C204.338 24.368 204.146 24.86 203.762 25.316C203.378 25.748 202.922 25.964 202.394 25.964C201.89 25.964 201.434 25.832 201.026 25.568C200.618 25.28 200.414 24.848 200.414 24.272C200.414 23.696 200.594 23.12 200.954 22.544C201.338 21.968 201.782 21.68 202.286 21.68ZM209.985 21.68C210.513 21.68 210.969 21.872 211.353 22.256C211.737 22.64 211.965 23.168 212.037 23.84C212.037 24.368 211.845 24.86 211.461 25.316C211.077 25.748 210.621 25.964 210.093 25.964C209.589 25.964 209.133 25.832 208.725 25.568C208.317 25.28 208.113 24.848 208.113 24.272C208.113 23.696 208.293 23.12 208.653 22.544C209.037 21.968 209.481 21.68 209.985 21.68ZM217.684 21.68C218.212 21.68 218.668 21.872 219.052 22.256C219.436 22.64 219.664 23.168 219.736 23.84C219.736 24.368 219.544 24.86 219.16 25.316C218.776 25.748 218.32 25.964 217.792 25.964C217.288 25.964 216.832 25.832 216.424 25.568C216.016 25.28 215.812 24.848 215.812 24.272C215.812 23.696 215.992 23.12 216.352 22.544C216.736 21.968 217.18 21.68 217.684 21.68Z" fill="white"/>
</svg>
